ffmpeg started on 2016-12-09 at 14:36:39
Report written to "Output/x264/results/ffmpeg/sintelplacebo5000k.log"
Command line:
Tools/ffmpeg/ffmpeg -benchmark -y -i Input/y4m/sintel.y4m -c:v libx264 -preset placebo -b:v 5000k -an Output/x264/encoded/sintelplacebo5000k.mkv
ffmpeg version N-82227-gdb23fde Copyright (c) 2000-2016 the FFmpeg developers
  built with gcc 5.4.0 (Ubuntu 5.4.0-6ubuntu1~16.04.2) 20160609
  configuration: --prefix=/home/jaroslav/ffmpeg_build --pkg-config-flags=--static --extra-cflags=-I/home/jaroslav/ffmpeg_build/include --extra-ldflags=-L/home/jaroslav/ffmpeg_build/lib --bindir=/home/jaroslav/bin --enable-gpl --enable-libass --enable-libfdk-aac --enable-libfreetype --enable-libmp3lame --enable-libopus --enable-libtheora --enable-libvorbis --enable-libvpx --enable-libx264 --enable-libx265 --enable-nvenc --enable-libmfx --enable-libxvid --enable-libgsm --enable-libopencore-amrnb --enable-version3 --enable-nonfree
  libavutil      55. 35.100 / 55. 35.100
  libavcodec     57. 66.101 / 57. 66.101
  libavformat    57. 57.100 / 57. 57.100
  libavdevice    57.  2.100 / 57.  2.100
  libavfilter     6. 66.100 /  6. 66.100
  libswscale      4.  3.100 /  4.  3.100
  libswresample   2.  4.100 /  2.  4.100
  libpostproc    54.  2.100 / 54.  2.100
Input #0, yuv4mpegpipe, from 'Input/y4m/sintel.y4m':
  Duration: 00:00:20.83, start: 0.000000, bitrate: 2057307 kb/s
    Stream #0:0: Video: rawvideo (I420 / 0x30323449), yuv420p(progressive), 4096x1744, SAR 1:1 DAR 256:109, 24 fps, 24 tbr, 24 tbn, 24 tbc
[libx264 @ 0x2a261c0] using SAR=1/1
[libx264 @ 0x2a261c0] DPB size (16 frames, 446464 mbs) > level limit (6 frames, 184320 mbs)
[libx264 @ 0x2a261c0] using cpu capabilities: MMX2 SSE2Fast SSSE3 SSE4.2 AVX FMA3 AVX2 LZCNT BMI2
[libx264 @ 0x2a261c0] profile High, level 5.2
[libx264 @ 0x2a261c0] 264 - core 148 - H.264/MPEG-4 AVC codec - Copyleft 2003-2016 - http://www.videolan.org/x264.html - options: cabac=1 ref=16 deblock=1:0:0 analyse=0x3:0x133 me=tesa subme=11 psy=1 psy_rd=1.00:0.00 mixed_ref=1 me_range=24 chroma_me=1 trellis=2 8x8dct=1 cqm=0 deadzone=21,11 fast_pskip=0 chroma_qp_offset=-2 threads=6 lookahead_threads=1 sliced_threads=0 nr=0 decimate=1 interlaced=0 bluray_compat=0 constrained_intra=0 bframes=16 b_pyramid=2 b_adapt=2 b_bias=0 direct=3 weightb=1 open_gop=0 weightp=2 keyint=250 keyint_min=24 scenecut=40 intra_refresh=0 rc_lookahead=60 rc=abr mbtree=1 bitrate=5000 ratetol=1.0 qcomp=0.60 qpmin=0 qpmax=69 qpstep=4 ip_ratio=1.40 aq=1:1.00
Output #0, matroska, to 'Output/x264/encoded/sintelplacebo5000k.mkv':
  Metadata:
    encoder         : Lavf57.57.100
    Stream #0:0: Video: h264 (libx264) (H264 / 0x34363248), yuv420p, 4096x1744 [SAR 1:1 DAR 256:109], q=-1--1, 5000 kb/s, 24 fps, 1k tbn, 24 tbc
    Metadata:
      encoder         : Lavc57.66.101 libx264
    Side data:
      cpb: bitrate max/min/avg: 0/0/5000000 buffer size: 0 vbv_delay: -1
Stream mapping:
  Stream #0:0 -> #0:0 (rawvideo (native) -> h264 (libx264))
Press [q] to stop, [?] for help
frame=   10 fps=0.0 q=0.0 size=       0kB time=00:00:00.00 bitrate=N/A speed=   0x    frame=   17 fps= 11 q=0.0 size=       0kB time=00:00:00.00 bitrate=N/A speed=   0x    frame=   25 fps= 12 q=0.0 size=       0kB time=00:00:00.00 bitrate=N/A speed=   0x    frame=   33 fps= 13 q=0.0 size=       0kB time=00:00:00.00 bitrate=N/A speed=   0x    frame=   41 fps= 13 q=0.0 size=       0kB time=00:00:00.00 bitrate=N/A speed=   0x    frame=   49 fps= 14 q=0.0 size=       0kB time=00:00:00.00 bitrate=N/A speed=   0x    frame=   57 fps= 14 q=0.0 size=       0kB time=00:00:00.00 bitrate=N/A speed=   0x    frame=   65 fps= 14 q=0.0 size=       0kB time=00:00:00.00 bitrate=N/A speed=   0x    frame=   66 fps= 11 q=0.0 size=       0kB time=00:00:00.00 bitrate=N/A speed=   0x    frame=   67 fps=7.2 q=0.0 size=       0kB time=00:00:00.00 bitrate=N/A speed=   0x    frame=   68 fps=5.9 q=0.0 size=       0kB time=00:00:00.00 bitrate=N/A speed=   0x    frame=   76 fps=6.3 q=0.0 size=       0kB time=00:00:00.00 bitrate=N/A speed=   0x    frame=   84 fps=1.3 q=0.0 size=       0kB time=00:00:00.00 bitrate=N/A speed=   0x    frame=   86 fps=1.3 q=0.0 size=       0kB time=00:00:00.00 bitrate=N/A speed=   0x    frame=   88 fps=1.3 q=31.0 size=       1kB time=-00:00:00.08 bitrate=N/A speed=N/A    frame=   90 fps=1.3 q=35.0 size=       1kB time=00:00:00.00 bitrate=5888.0kbits/s speed=1.42e-05x    frame=   92 fps=1.3 q=43.0 size=       1kB time=00:00:00.08 bitrate=  70.1kbits/s speed=0.00115x    frame=   93 fps=1.2 q=48.0 size=       1kB time=00:00:00.12 bitrate=  46.7kbits/s speed=0.00162x    frame=   94 fps=1.2 q=47.0 size=       1kB time=00:00:00.16 bitrate=  35.0kbits/s speed=0.00213x    frame=   96 fps=1.2 q=48.0 size=       1kB time=00:00:00.25 bitrate=  23.5kbits/s speed=0.00315x    frame=   98 fps=1.2 q=48.0 size=       1kB time=00:00:00.33 bitrate=  17.6kbits/s speed=0.00413x    frame=   99 fps=1.2 q=48.0 size=       1kB time=00:00:00.37 bitrate=  15.7kbits/s speed=0.00439x    frame=  100 fps=1.2 q=48.0 size=       1kB time=00:00:00.41 bitrate=  14.1kbits/s speed=0.00483x    frame=  101 fps=1.1 q=48.0 size=       1kB time=00:00:00.45 bitrate=  12.8kbits/s speed=0.00516x    frame=  102 fps=1.1 q=48.0 size=       1kB time=00:00:00.50 bitrate=  11.8kbits/s speed=0.00559x    frame=  103 fps=1.1 q=48.0 size=       1kB time=00:00:00.54 bitrate=  10.8kbits/s speed=0.00601x    frame=  104 fps=1.1 q=48.0 size=       1kB time=00:00:00.58 bitrate=  10.1kbits/s speed=0.00628x    frame=  105 fps=1.1 q=48.0 size=       1kB time=00:00:00.62 bitrate=   9.4kbits/s speed=0.00636x    frame=  106 fps=1.0 q=48.0 size=       1kB time=00:00:00.66 bitrate=   8.8kbits/s speed=0.0065x    frame=  107 fps=1.0 q=48.0 size=       1kB time=00:00:00.70 bitrate=   8.3kbits/s speed=0.00683x    frame=  108 fps=1.0 q=48.0 size=       1kB time=00:00:00.75 bitrate=   7.8kbits/s speed=0.00708x    frame=  109 fps=1.0 q=48.0 size=       1kB time=00:00:00.79 bitrate=   7.4kbits/s speed=0.00722x    frame=  110 fps=1.0 q=48.0 size=       1kB time=00:00:00.83 bitrate=   7.1kbits/s speed=0.00739x    frame=  111 fps=1.0 q=48.0 size=       1kB time=00:00:00.87 bitrate=   6.7kbits/s speed=0.00752x    frame=  112 fps=0.9 q=47.0 size=       1kB time=00:00:00.91 bitrate=   6.4kbits/s speed=0.00772x    frame=  113 fps=0.9 q=47.0 size=       1kB time=00:00:00.95 bitrate=   6.1kbits/s speed=0.00792x    frame=  114 fps=0.9 q=47.0 size=       1kB time=00:00:01.00 bitrate=   5.9kbits/s speed=0.00816x    frame=  115 fps=0.9 q=47.0 size=       1kB time=00:00:01.04 bitrate=   5.6kbits/s speed=0.00839x    frame=  116 fps=0.9 q=47.0 size=       1kB time=00:00:01.08 bitrate=   5.4kbits/s speed=0.00845x    frame=  117 fps=0.9 q=47.0 size=       1kB time=00:00:01.12 bitrate=   5.2kbits/s speed=0.00862x    frame=  118 fps=0.9 q=47.0 size=       1kB time=00:00:01.16 bitrate=   5.0kbits/s speed=0.00876x    frame=  119 fps=0.9 q=47.0 size=       1kB time=00:00:01.20 bitrate=   4.9kbits/s speed=0.00893x    frame=  120 fps=0.9 q=47.0 size=       1kB time=00:00:01.25 bitrate=   4.7kbits/s speed=0.00906x    frame=  121 fps=0.9 q=47.0 size=       1kB time=00:00:01.29 bitrate=   4.6kbits/s speed=0.00921x    frame=  122 fps=0.9 q=47.0 size=       1kB time=00:00:01.33 bitrate=   4.4kbits/s speed=0.0093x    frame=  123 fps=0.8 q=47.0 size=       1kB time=00:00:01.37 bitrate=   4.3kbits/s speed=0.00943x    frame=  124 fps=0.8 q=47.0 size=       1kB time=00:00:01.41 bitrate=   4.2kbits/s speed=0.00955x    frame=  125 fps=0.8 q=47.0 size=       1kB time=00:00:01.45 bitrate=   4.0kbits/s speed=0.00965x    frame=  126 fps=0.8 q=46.0 size=       1kB time=00:00:01.50 bitrate=   3.9kbits/s speed=0.00982x    frame=  127 fps=0.8 q=46.0 size=       1kB time=00:00:01.54 bitrate=   3.8kbits/s speed=0.00989x    frame=  128 fps=0.8 q=46.0 size=       1kB time=00:00:01.58 bitrate=   3.7kbits/s speed=0.01x    frame=  129 fps=0.8 q=46.0 size=       1kB time=00:00:01.62 bitrate=   3.6kbits/s speed=0.0101x    frame=  130 fps=0.8 q=46.0 size=       1kB time=00:00:01.66 bitrate=   3.5kbits/s speed=0.0103x    frame=  131 fps=0.8 q=46.0 size=       1kB time=00:00:01.70 bitrate=   3.4kbits/s speed=0.0103x    frame=  132 fps=0.8 q=46.0 size=       1kB time=00:00:01.75 bitrate=   3.4kbits/s speed=0.0105x    frame=  133 fps=0.8 q=46.0 size=       1kB time=00:00:01.79 bitrate=   3.3kbits/s speed=0.0106x    frame=  134 fps=0.8 q=46.0 size=       1kB time=00:00:01.83 bitrate=   3.2kbits/s speed=0.0106x    frame=  135 fps=0.8 q=46.0 size=       1kB time=00:00:01.87 bitrate=   3.1kbits/s speed=0.0107x    frame=  136 fps=0.8 q=46.0 size=       1kB time=00:00:01.91 bitrate=   3.1kbits/s speed=0.0108x    frame=  137 fps=0.8 q=46.0 size=       1kB time=00:00:01.95 bitrate=   3.0kbits/s speed=0.0109x    frame=  138 fps=0.8 q=46.0 size=       1kB time=00:00:02.00 bitrate=   2.9kbits/s speed=0.011x    frame=  139 fps=0.8 q=46.0 size=       1kB time=00:00:02.04 bitrate=   2.9kbits/s speed=0.011x    frame=  140 fps=0.7 q=46.0 size=       1kB time=00:00:02.08 bitrate=   2.8kbits/s speed=0.011x    frame=  141 fps=0.7 q=45.0 size=       1kB time=00:00:02.12 bitrate=   2.8kbits/s speed=0.0111x    frame=  142 fps=0.7 q=45.0 size=       1kB time=00:00:02.16 bitrate=   2.7kbits/s speed=0.0111x    frame=  143 fps=0.7 q=45.0 size=       1kB time=00:00:02.20 bitrate=   2.7kbits/s speed=0.0111x    frame=  144 fps=0.7 q=45.0 size=       1kB time=00:00:02.25 bitrate=   2.6kbits/s speed=0.0112x    frame=  145 fps=0.7 q=45.0 size=       1kB time=00:00:02.29 bitrate=   2.6kbits/s speed=0.0112x    frame=  146 fps=0.7 q=45.0 size=       1kB time=00:00:02.33 bitrate=   2.5kbits/s speed=0.0113x    frame=  147 fps=0.7 q=45.0 size=       1kB time=00:00:02.37 bitrate=   2.5kbits/s speed=0.0113x    frame=  148 fps=0.7 q=45.0 size=       1kB time=00:00:02.41 bitrate=   2.4kbits/s speed=0.0113x    frame=  149 fps=0.7 q=45.0 size=       1kB time=00:00:02.45 bitrate=   2.4kbits/s speed=0.0114x    frame=  150 fps=0.7 q=45.0 size=       1kB time=00:00:02.50 bitrate=   2.4kbits/s speed=0.0114x    frame=  151 fps=0.7 q=45.0 size=       1kB time=00:00:02.54 bitrate=   2.3kbits/s speed=0.0116x    frame=  152 fps=0.7 q=45.0 size=       1kB time=00:00:02.58 bitrate=   2.3kbits/s speed=0.0116x    frame=  153 fps=0.7 q=45.0 size=       1kB time=00:00:02.62 bitrate=   2.2kbits/s speed=0.0117x    frame=  154 fps=0.7 q=45.0 size=       1kB time=00:00:02.66 bitrate=   2.2kbits/s speed=0.0115x    frame=  155 fps=0.7 q=45.0 size=       1kB time=00:00:02.70 bitrate=   2.2kbits/s speed=0.0116x    frame=  156 fps=0.7 q=45.0 size=       1kB time=00:00:02.75 bitrate=   2.1kbits/s speed=0.0117x    frame=  157 fps=0.7 q=45.0 size=       1kB time=00:00:02.79 bitrate=   2.1kbits/s speed=0.0117x    frame=  158 fps=0.7 q=45.0 size=       1kB time=00:00:02.83 bitrate=   2.1kbits/s speed=0.0118x    frame=  159 fps=0.7 q=45.0 size=       1kB time=00:00:02.87 bitrate=   2.0kbits/s speed=0.0119x    frame=  160 fps=0.6 q=45.0 size=       1kB time=00:00:02.91 bitrate=   2.0kbits/s speed=0.0118x    frame=  161 fps=0.6 q=45.0 size=       1kB time=00:00:02.95 bitrate=   2.0kbits/s speed=0.0118x    frame=  162 fps=0.6 q=45.0 size=       1kB time=00:00:03.00 bitrate=   2.0kbits/s speed=0.0119x    frame=  163 fps=0.6 q=45.0 size=       1kB time=00:00:03.04 bitrate=   1.9kbits/s speed=0.0119x    frame=  164 fps=0.6 q=45.0 size=       1kB time=00:00:03.08 bitrate=   1.9kbits/s speed=0.012x    frame=  165 fps=0.6 q=45.0 size=       1kB time=00:00:03.12 bitrate=   1.9kbits/s speed=0.0121x    frame=  166 fps=0.6 q=45.0 size=       1kB time=00:00:03.16 bitrate=   1.9kbits/s speed=0.012x    frame=  167 fps=0.6 q=45.0 size=       1kB time=00:00:03.20 bitrate=   1.8kbits/s speed=0.012x    frame=  168 fps=0.6 q=45.0 size=       1kB time=00:00:03.25 bitrate=   1.8kbits/s speed=0.0121x    frame=  169 fps=0.6 q=45.0 size=       1kB time=00:00:03.29 bitrate=   1.8kbits/s speed=0.0121x    frame=  170 fps=0.6 q=45.0 size=       1kB time=00:00:03.33 bitrate=   1.8kbits/s speed=0.0122x    frame=  171 fps=0.6 q=45.0 size=       1kB time=00:00:03.37 bitrate=   1.7kbits/s speed=0.0122x    frame=  172 fps=0.6 q=45.0 size=       1kB time=00:00:03.41 bitrate=   1.7kbits/s speed=0.0122x    frame=  173 fps=0.6 q=45.0 size=       1kB time=00:00:03.45 bitrate=   1.7kbits/s speed=0.0122x    frame=  174 fps=0.6 q=45.0 size=       1kB time=00:00:03.50 bitrate=   1.7kbits/s speed=0.0123x    frame=  175 fps=0.6 q=45.0 size=       1kB time=00:00:03.54 bitrate=   1.7kbits/s speed=0.0123x    frame=  176 fps=0.6 q=45.0 size=       1kB time=00:00:03.58 bitrate=   1.6kbits/s speed=0.0123x    frame=  177 fps=0.6 q=44.0 size=       1kB time=00:00:03.62 bitrate=   1.6kbits/s speed=0.0123x    frame=  178 fps=0.6 q=44.0 size=       1kB time=00:00:03.66 bitrate=   1.6kbits/s speed=0.0124x    frame=  179 fps=0.6 q=44.0 size=       1kB time=00:00:03.70 bitrate=   1.6kbits/s speed=0.0124x    frame=  180 fps=0.6 q=44.0 size=       1kB time=00:00:03.75 bitrate=   1.6kbits/s speed=0.0124x    frame=  181 fps=0.6 q=44.0 size=       1kB time=00:00:03.79 bitrate=   1.6kbits/s speed=0.0124x    frame=  182 fps=0.6 q=44.0 size=       1kB time=00:00:03.83 bitrate=   1.5kbits/s speed=0.0124x    frame=  183 fps=0.6 q=44.0 size=       1kB time=00:00:03.87 bitrate=   1.5kbits/s speed=0.0125x    frame=  184 fps=0.6 q=44.0 size=       1kB time=00:00:03.91 bitrate=   1.5kbits/s speed=0.0125x    frame=  185 fps=0.6 q=44.0 size=       1kB time=00:00:03.95 bitrate=   1.5kbits/s speed=0.0125x    frame=  186 fps=0.6 q=44.0 size=       1kB time=00:00:04.00 bitrate=   1.5kbits/s speed=0.0126x    frame=  187 fps=0.6 q=44.0 size=       1kB time=00:00:04.04 bitrate=   1.5kbits/s speed=0.0126x    frame=  188 fps=0.6 q=44.0 size=       1kB time=00:00:04.08 bitrate=   1.4kbits/s speed=0.0126x    frame=  189 fps=0.6 q=44.0 size=       1kB time=00:00:04.12 bitrate=   1.4kbits/s speed=0.0126x    frame=  190 fps=0.6 q=44.0 size=       1kB time=00:00:04.16 bitrate=   1.4kbits/s speed=0.0127x    frame=  191 fps=0.6 q=44.0 size=       1kB time=00:00:04.20 bitrate=   1.4kbits/s speed=0.0127x    frame=  192 fps=0.6 q=44.0 size=       1kB time=00:00:04.25 bitrate=   1.4kbits/s speed=0.0128x    frame=  193 fps=0.6 q=44.0 size=       1kB time=00:00:04.29 bitrate=   1.4kbits/s speed=0.0128x    frame=  194 fps=0.6 q=44.0 size=       1kB time=00:00:04.33 bitrate=   1.4kbits/s speed=0.0129x    frame=  195 fps=0.6 q=44.0 size=       1kB time=00:00:04.37 bitrate=   1.3kbits/s speed=0.0128x    frame=  196 fps=0.6 q=44.0 size=       1kB time=00:00:04.41 bitrate=   1.3kbits/s speed=0.0128x    frame=  197 fps=0.6 q=44.0 size=       1kB time=00:00:04.45 bitrate=   1.3kbits/s speed=0.0129x    frame=  198 fps=0.6 q=44.0 size=       1kB time=00:00:04.50 bitrate=   1.3kbits/s speed=0.0129x    frame=  199 fps=0.6 q=44.0 size=       1kB time=00:00:04.54 bitrate=   1.3kbits/s speed=0.013x    frame=  200 fps=0.6 q=44.0 size=       1kB time=00:00:04.58 bitrate=   1.3kbits/s speed=0.013x    frame=  201 fps=0.6 q=44.0 size=       1kB time=00:00:04.62 bitrate=   1.3kbits/s speed=0.0129x    frame=  202 fps=0.6 q=44.0 size=       1kB time=00:00:04.66 bitrate=   1.3kbits/s speed=0.013x    frame=  203 fps=0.6 q=44.0 size=       1kB time=00:00:04.70 bitrate=   1.3kbits/s speed=0.0131x    frame=  204 fps=0.6 q=44.0 size=       1kB time=00:00:04.75 bitrate=   1.2kbits/s speed=0.0129x    frame=  205 fps=0.6 q=44.0 size=       1kB time=00:00:04.79 bitrate=   1.2kbits/s speed=0.0129x    frame=  206 fps=0.6 q=44.0 size=       1kB time=00:00:04.83 bitrate=   1.2kbits/s speed=0.013x    frame=  207 fps=0.6 q=44.0 size=       1kB time=00:00:04.87 bitrate=   1.2kbits/s speed=0.013x    frame=  208 fps=0.6 q=44.0 size=    3147kB time=00:00:04.91 bitrate=5242.4kbits/s speed=0.0131x    frame=  209 fps=0.6 q=44.0 size=    3147kB time=00:00:04.95 bitrate=5199.1kbits/s speed=0.0131x    frame=  210 fps=0.6 q=43.0 size=    3147kB time=00:00:05.00 bitrate=5155.4kbits/s speed=0.0132x    frame=  211 fps=0.5 q=43.0 size=    3147kB time=00:00:05.04 bitrate=5112.5kbits/s speed=0.013x    frame=  212 fps=0.5 q=43.0 size=    3147kB time=00:00:05.08 bitrate=5071.2kbits/s speed=0.013x    frame=  213 fps=0.5 q=43.0 size=    3147kB time=00:00:05.12 bitrate=5029.7kbits/s speed=0.0131x    frame=  214 fps=0.5 q=43.0 size=    3147kB time=00:00:05.16 bitrate=4988.8kbits/s speed=0.0131x    frame=  215 fps=0.5 q=44.0 size=    3147kB time=00:00:05.20 bitrate=4949.5kbits/s speed=0.0131x    frame=  216 fps=0.5 q=44.0 size=    3147kB time=00:00:05.25 bitrate=4910.0kbits/s speed=0.0131x    frame=  217 fps=0.5 q=44.0 size=    3147kB time=00:00:05.29 bitrate=4871.0kbits/s speed=0.0131x    frame=  218 fps=0.5 q=44.0 size=    3147kB time=00:00:05.33 bitrate=4833.6kbits/s speed=0.0131x    frame=  219 fps=0.5 q=44.0 size=    3147kB time=00:00:05.37 bitrate=4795.8kbits/s speed=0.0131x    frame=  220 fps=0.5 q=44.0 size=    3147kB time=00:00:05.41 bitrate=4758.6kbits/s speed=0.0131x    frame=  221 fps=0.5 q=44.0 size=    3147kB time=00:00:05.45 bitrate=4722.9kbits/s speed=0.0132x    frame=  222 fps=0.5 q=44.0 size=    3147kB time=00:00:05.50 bitrate=4686.8kbits/s speed=0.0132x    frame=  223 fps=0.5 q=44.0 size=    3147kB time=00:00:05.54 bitrate=4651.3kbits/s speed=0.0131x    frame=  224 fps=0.5 q=44.0 size=    3147kB time=00:00:05.58 bitrate=4617.2kbits/s speed=0.0131x    frame=  225 fps=0.5 q=44.0 size=    3147kB time=00:00:05.62 bitrate=4582.7kbits/s speed=0.0131x    frame=  226 fps=0.5 q=44.0 size=    3147kB time=00:00:05.66 bitrate=4548.7kbits/s speed=0.0132x    frame=  227 fps=0.5 q=43.0 size=    3147kB time=00:00:05.70 bitrate=4516.1kbits/s speed=0.0132x    frame=  228 fps=0.5 q=43.0 size=    3147kB time=00:00:05.75 bitrate=4483.1kbits/s speed=0.0132x    frame=  229 fps=0.5 q=43.0 size=    3147kB time=00:00:05.79 bitrate=4450.6kbits/s speed=0.0132x    frame=  230 fps=0.5 q=43.0 size=    3147kB time=00:00:05.83 bitrate=4419.3kbits/s speed=0.0132x    frame=  231 fps=0.5 q=43.0 size=    3147kB time=00:00:05.87 bitrate=4387.7kbits/s speed=0.0132x    frame=  232 fps=0.5 q=43.0 size=    3147kB time=00:00:05.91 bitrate=4356.6kbits/s speed=0.0132x    frame=  233 fps=0.5 q=43.0 size=    3147kB time=00:00:05.95 bitrate=4326.6kbits/s speed=0.0132x    frame=  234 fps=0.5 q=43.0 size=    3147kB time=00:00:06.00 bitrate=4296.3kbits/s speed=0.0133x    frame=  235 fps=0.5 q=43.0 size=    3147kB time=00:00:06.04 bitrate=4266.5kbits/s speed=0.0133x    frame=  236 fps=0.5 q=43.0 size=    3147kB time=00:00:06.08 bitrate=4237.7kbits/s speed=0.0132x    frame=  237 fps=0.5 q=43.0 size=    3147kB time=00:00:06.12 bitrate=4208.7kbits/s speed=0.0133x    frame=  238 fps=0.5 q=43.0 size=    3147kB time=00:00:06.16 bitrate=4180.0kbits/s speed=0.0133x    frame=  239 fps=0.5 q=43.0 size=    3147kB time=00:00:06.20 bitrate=4152.4kbits/s speed=0.0133x    frame=  240 fps=0.5 q=43.0 size=    3147kB time=00:00:06.25 bitrate=4124.5kbits/s speed=0.0134x    frame=  241 fps=0.5 q=43.0 size=    3147kB time=00:00:06.29 bitrate=4097.0kbits/s speed=0.0134x    frame=  242 fps=0.5 q=43.0 size=    3147kB time=00:00:06.33 bitrate=4070.4kbits/s speed=0.0134x    frame=  243 fps=0.5 q=43.0 size=    3147kB time=00:00:06.37 bitrate=4043.6kbits/s speed=0.0135x    frame=  245 fps=0.5 q=43.0 size=    3147kB time=00:00:06.45 bitrate=3991.7kbits/s speed=0.0133x    frame=  246 fps=0.5 q=43.0 size=    3147kB time=00:00:06.50 bitrate=3965.9kbits/s speed=0.0134x    frame=  247 fps=0.5 q=43.0 size=    3147kB time=00:00:06.54 bitrate=3940.4kbits/s speed=0.0134x    frame=  248 fps=0.5 q=43.0 size=    3147kB time=00:00:06.58 bitrate=3915.9kbits/s speed=0.0134x    frame=  249 fps=0.5 q=43.0 size=    3147kB time=00:00:06.62 bitrate=3891.1kbits/s speed=0.0135x    frame=  250 fps=0.5 q=43.0 size=    3147kB time=00:00:06.66 bitrate=3866.6kbits/s speed=0.0135x    frame=  251 fps=0.5 q=43.0 size=    3147kB time=00:00:06.70 bitrate=3842.9kbits/s speed=0.0134x    frame=  252 fps=0.5 q=43.0 size=    3147kB time=00:00:06.75 bitrate=3819.0kbits/s speed=0.0134x    frame=  253 fps=0.5 q=43.0 size=    3147kB time=00:00:06.79 bitrate=3795.4kbits/s speed=0.0135x    frame=  254 fps=0.5 q=43.0 size=    3147kB time=00:00:06.83 bitrate=3772.6kbits/s speed=0.0135x    frame=  255 fps=0.5 q=43.0 size=    3147kB time=00:00:06.87 bitrate=3749.6kbits/s speed=0.0135x    frame=  256 fps=0.5 q=43.0 size=    3147kB time=00:00:06.91 bitrate=3726.8kbits/s speed=0.0135x    frame=  257 fps=0.5 q=43.0 size=    3147kB time=00:00:06.95 bitrate=3704.9kbits/s speed=0.0135x    frame=  258 fps=0.5 q=43.0 size=    3147kB time=00:00:07.00 bitrate=3682.6kbits/s speed=0.0135x    frame=  259 fps=0.5 q=43.0 size=    3147kB time=00:00:07.04 bitrate=3660.7kbits/s speed=0.0135x    frame=  260 fps=0.5 q=43.0 size=    3147kB time=00:00:07.08 bitrate=3639.5kbits/s speed=0.0135x    frame=  261 fps=0.5 q=43.0 size=    3147kB time=00:00:07.12 bitrate=3618.0kbits/s speed=0.0135x    frame=  262 fps=0.5 q=43.0 size=    3147kB time=00:00:07.16 bitrate=3596.8kbits/s speed=0.0135x    frame=  263 fps=0.5 q=43.0 size=    3147kB time=00:00:07.20 bitrate=3576.4kbits/s speed=0.0135x    frame=  264 fps=0.5 q=43.0 size=    3147kB time=00:00:07.25 bitrate=3555.7kbits/s speed=0.0135x    frame=  265 fps=0.5 q=43.0 size=    3147kB time=00:00:07.29 bitrate=3535.2kbits/s speed=0.0135x    frame=  266 fps=0.5 q=43.0 size=    3147kB time=00:00:07.33 bitrate=3515.4kbits/s speed=0.0135x    frame=  267 fps=0.5 q=43.0 size=    3147kB time=00:00:07.37 bitrate=3495.4kbits/s speed=0.0135x    frame=  268 fps=0.5 q=43.0 size=    3147kB time=00:00:07.41 bitrate=3475.6kbits/s speed=0.0135x    frame=  269 fps=0.5 q=43.0 size=    3147kB time=00:00:07.45 bitrate=3456.5kbits/s speed=0.0135x    frame=  270 fps=0.5 q=43.0 size=    3147kB time=00:00:07.50 bitrate=3437.2kbits/s speed=0.0135x    frame=  271 fps=0.5 q=43.0 size=    3147kB time=00:00:07.54 bitrate=3418.0kbits/s speed=0.0135x    frame=  272 fps=0.5 q=43.0 size=    3147kB time=00:00:07.58 bitrate=3399.6kbits/s speed=0.0135x    frame=  273 fps=0.5 q=43.0 size=    3147kB time=00:00:07.62 bitrate=3380.8kbits/s speed=0.0135x    frame=  274 fps=0.5 q=43.0 size=    3147kB time=00:00:07.66 bitrate=3362.3kbits/s speed=0.0135x    frame=  276 fps=0.5 q=42.0 size=    3147kB time=00:00:07.75 bitrate=3326.3kbits/s speed=0.0136x    frame=  277 fps=0.5 q=42.0 size=    3147kB time=00:00:07.79 bitrate=3308.4kbits/s speed=0.0137x    frame=  278 fps=0.5 q=42.0 size=    3147kB time=00:00:07.83 bitrate=3291.1kbits/s speed=0.0137x    frame=  279 fps=0.5 q=42.0 size=    3147kB time=00:00:07.87 bitrate=3273.5kbits/s speed=0.0136x    frame=  280 fps=0.5 q=42.0 size=    3147kB time=00:00:07.91 bitrate=3256.1kbits/s speed=0.0136x    frame=  281 fps=0.5 q=42.0 size=    3147kB time=00:00:07.95 bitrate=3239.4kbits/s speed=0.0137x    frame=  282 fps=0.5 q=42.0 size=    3147kB time=00:00:08.00 bitrate=3222.4kbits/s speed=0.0137x    frame=  283 fps=0.5 q=42.0 size=    3147kB time=00:00:08.04 bitrate=3205.5kbits/s speed=0.0137x    frame=  284 fps=0.5 q=42.0 size=    3147kB time=00:00:08.08 bitrate=3189.3kbits/s speed=0.0138x    frame=  285 fps=0.5 q=42.0 size=    3147kB time=00:00:08.12 bitrate=3172.8kbits/s speed=0.0137x    frame=  286 fps=0.5 q=42.0 size=    3147kB time=00:00:08.16 bitrate=3156.5kbits/s speed=0.0136x    frame=  287 fps=0.5 q=42.0 size=    3147kB time=00:00:08.20 bitrate=3140.7kbits/s speed=0.0137x    frame=  288 fps=0.5 q=42.0 size=    3147kB time=00:00:08.25 bitrate=3124.7kbits/s speed=0.0137x    frame=  289 fps=0.5 q=42.0 size=    3147kB time=00:00:08.29 bitrate=3108.9kbits/s speed=0.0137x    frame=  290 fps=0.5 q=42.0 size=    3147kB time=00:00:08.33 bitrate=3093.6kbits/s speed=0.0137x    frame=  291 fps=0.5 q=42.0 size=    3147kB time=00:00:08.37 bitrate=3078.1kbits/s speed=0.0137x    frame=  292 fps=0.5 q=42.0 size=    3147kB time=00:00:08.41 bitrate=3062.7kbits/s speed=0.0137x    frame=  293 fps=0.5 q=42.0 size=    3147kB time=00:00:08.45 bitrate=3047.9kbits/s speed=0.0137x    frame=  294 fps=0.5 q=42.0 size=    3147kB time=00:00:08.50 bitrate=3032.8kbits/s speed=0.0137x    frame=  295 fps=0.5 q=42.0 size=    3147kB time=00:00:08.54 bitrate=3017.9kbits/s speed=0.0137x    frame=  296 fps=0.5 q=42.0 size=    3147kB time=00:00:08.58 bitrate=3003.5kbits/s speed=0.0138x    frame=  297 fps=0.5 q=42.0 size=    3147kB time=00:00:08.62 bitrate=2988.9kbits/s speed=0.0137x    frame=  298 fps=0.5 q=42.0 size=    3147kB time=00:00:08.66 bitrate=2974.4kbits/s speed=0.0137x    frame=  299 fps=0.5 q=42.0 size=    3147kB time=00:00:08.70 bitrate=2960.4kbits/s speed=0.0137x    frame=  300 fps=0.5 q=42.0 size=    3147kB time=00:00:08.75 bitrate=2946.2kbits/s speed=0.0137x    frame=  301 fps=0.5 q=42.0 size=    3147kB time=00:00:08.79 bitrate=2932.1kbits/s speed=0.0137x    frame=  302 fps=0.5 q=42.0 size=    3147kB time=00:00:08.83 bitrate=2918.5kbits/s speed=0.0138x    frame=  303 fps=0.5 q=42.0 size=    3147kB time=00:00:08.87 bitrate=2904.7kbits/s speed=0.0138x    frame=  304 fps=0.5 q=42.0 size=    3147kB time=00:00:08.91 bitrate=2891.0kbits/s speed=0.0138x    frame=  305 fps=0.5 q=42.0 size=    3147kB time=00:00:08.95 bitrate=2877.8kbits/s speed=0.0137x    frame=  306 fps=0.5 q=42.0 size=    3147kB time=00:00:09.00 bitrate=2864.4kbits/s speed=0.0138x    frame=  307 fps=0.5 q=42.0 size=    3147kB time=00:00:09.04 bitrate=2851.1kbits/s speed=0.0138x    frame=  308 fps=0.5 q=42.0 size=    3147kB time=00:00:09.08 bitrate=2838.2kbits/s speed=0.0138x    frame=  309 fps=0.5 q=42.0 size=    3147kB time=00:00:09.12 bitrate=2825.1kbits/s speed=0.0139x    frame=  310 fps=0.5 q=42.0 size=    3147kB time=00:00:09.16 bitrate=2812.2kbits/s speed=0.0138x    frame=  311 fps=0.5 q=42.0 size=    3147kB time=00:00:09.20 bitrate=2799.7kbits/s speed=0.0138x    frame=  312 fps=0.5 q=42.0 size=    3147kB time=00:00:09.25 bitrate=2787.0kbits/s speed=0.0139x    frame=  314 fps=0.5 q=42.0 size=    3147kB time=00:00:09.33 bitrate=2762.2kbits/s speed=0.0138x    frame=  315 fps=0.5 q=42.0 size=    3147kB time=00:00:09.37 bitrate=2749.8kbits/s speed=0.0139x    frame=  316 fps=0.5 q=42.0 size=    3147kB time=00:00:09.41 bitrate=2737.5kbits/s speed=0.0139x    frame=  319 fps=0.5 q=42.0 size=    3147kB time=00:00:09.54 bitrate=2701.7kbits/s speed=0.014x    frame=  320 fps=0.5 q=42.0 size=    3147kB time=00:00:09.58 bitrate=2690.1kbits/s speed=0.014x    frame=  321 fps=0.5 q=42.0 size=    3147kB time=00:00:09.62 bitrate=2678.4kbits/s speed=0.0139x    frame=  322 fps=0.5 q=41.0 size=    3147kB time=00:00:09.66 bitrate=2666.8kbits/s speed=0.014x    frame=  323 fps=0.5 q=41.0 size=    3147kB time=00:00:09.70 bitrate=2655.5kbits/s speed=0.014x    frame=  324 fps=0.5 q=41.0 size=    3147kB time=00:00:09.75 bitrate=2644.1kbits/s speed=0.014x    frame=  325 fps=0.5 q=41.0 size=    3147kB time=00:00:09.79 bitrate=2632.7kbits/s speed=0.0141x    frame=  326 fps=0.5 q=41.0 size=    3147kB time=00:00:09.83 bitrate=2621.7kbits/s speed=0.0141x    frame=  327 fps=0.5 q=41.0 size=    3147kB time=00:00:09.87 bitrate=2610.6kbits/s speed=0.0141x    frame=  328 fps=0.5 q=41.0 size=    3147kB time=00:00:09.91 bitrate=2599.5kbits/s speed=0.014x    frame=  329 fps=0.5 q=41.0 size=    5719kB time=00:00:09.95 bitrate=4704.0kbits/s speed=0.014x    frame=  330 fps=0.5 q=41.0 size=    5719kB time=00:00:10.00 bitrate=4684.2kbits/s speed=0.014x    frame=  331 fps=0.5 q=41.0 size=    5719kB time=00:00:10.04 bitrate=4664.6kbits/s speed=0.0141x    frame=  332 fps=0.5 q=41.0 size=    5719kB time=00:00:10.08 bitrate=4645.7kbits/s speed=0.0141x    frame=  333 fps=0.5 q=39.0 size=    5719kB time=00:00:10.12 bitrate=4626.4kbits/s speed=0.0142x    frame=  334 fps=0.5 q=41.0 size=    5719kB time=00:00:10.16 bitrate=4607.3kbits/s speed=0.014x    frame=  335 fps=0.5 q=41.0 size=    5719kB time=00:00:10.20 bitrate=4588.8kbits/s speed=0.0141x    frame=  336 fps=0.5 q=41.0 size=    5719kB time=00:00:10.25 bitrate=4570.0kbits/s speed=0.0141x    frame=  337 fps=0.5 q=41.0 size=    5719kB time=00:00:10.29 bitrate=4551.3kbits/s speed=0.0141x    frame=  338 fps=0.5 q=41.0 size=    5892kB time=00:00:10.33 bitrate=4671.1kbits/s speed=0.0142x    frame=  344 fps=0.5 q=41.0 size=    5892kB time=00:00:10.58 bitrate=4560.8kbits/s speed=0.0144x    frame=  346 fps=0.5 q=41.0 size=    5892kB time=00:00:10.66 bitrate=4524.8kbits/s speed=0.0145x    frame=  347 fps=0.5 q=41.0 size=    5892kB time=00:00:10.70 bitrate=4507.5kbits/s speed=0.0145x    frame=  348 fps=0.5 q=38.0 size=    5892kB time=00:00:10.75 bitrate=4489.9kbits/s speed=0.0146x    frame=  349 fps=0.5 q=41.0 size=    5892kB time=00:00:10.79 bitrate=4472.4kbits/s speed=0.0146x    frame=  350 fps=0.5 q=41.0 size=    5892kB time=00:00:10.83 bitrate=4455.5kbits/s speed=0.0146x    frame=  351 fps=0.5 q=41.0 size=    5892kB time=00:00:10.87 bitrate=4438.3kbits/s speed=0.0147x    frame=  353 fps=0.5 q=41.0 size=    5892kB time=00:00:10.95 bitrate=4404.7kbits/s speed=0.0148x    frame=  355 fps=0.5 q=41.0 size=    5892kB time=00:00:11.04 bitrate=4371.2kbits/s speed=0.0148x    frame=  356 fps=0.5 q=41.0 size=    5892kB time=00:00:11.08 bitrate=4355.0kbits/s speed=0.0148x    frame=  358 fps=0.5 q=41.0 size=    5892kB time=00:00:11.16 bitrate=4322.3kbits/s speed=0.0148x    frame=  359 fps=0.5 q=41.0 size=    5892kB time=00:00:11.20 bitrate=4306.5kbits/s speed=0.0149x    frame=  360 fps=0.5 q=41.0 size=    5892kB time=00:00:11.25 bitrate=4290.4kbits/s speed=0.0149x    frame=  361 fps=0.5 q=41.0 size=    5892kB time=00:00:11.29 bitrate=4274.4kbits/s speed=0.0149x    frame=  362 fps=0.5 q=41.0 size=    5892kB time=00:00:11.33 bitrate=4259.0kbits/s speed=0.0149x    frame=  364 fps=0.5 q=41.0 size=    5892kB time=00:00:11.41 bitrate=4227.6kbits/s speed=0.015x    frame=  365 fps=0.5 q=40.0 size=    5892kB time=00:00:11.45 bitrate=4212.5kbits/s speed=0.0149x    frame=  366 fps=0.5 q=40.0 size=    5892kB time=00:00:11.50 bitrate=4197.1kbits/s speed=0.015x    frame=  367 fps=0.5 q=40.0 size=    5892kB time=00:00:11.54 bitrate=4181.9kbits/s speed=0.015x    frame=  369 fps=0.5 q=40.0 size=    5892kB time=00:00:11.62 bitrate=4152.0kbits/s speed=0.015x    frame=  371 fps=0.5 q=40.0 size=    5892kB time=00:00:11.70 bitrate=4122.6kbits/s speed=0.0151x    frame=  372 fps=0.5 q=40.0 size=    5892kB time=00:00:11.75 bitrate=4107.8kbits/s speed=0.015x    frame=  373 fps=0.5 q=40.0 size=    5892kB time=00:00:11.79 bitrate=4093.2kbits/s speed=0.0151x    frame=  374 fps=0.5 q=40.0 size=    5892kB time=00:00:11.83 bitrate=4079.0kbits/s speed=0.0151x    frame=  375 fps=0.5 q=40.0 size=    5892kB time=00:00:11.87 bitrate=4064.6kbits/s speed=0.0151x    frame=  376 fps=0.5 q=40.0 size=    5892kB time=00:00:11.91 bitrate=4050.3kbits/s speed=0.0151x    frame=  377 fps=0.5 q=40.0 size=    5892kB time=00:00:11.95 bitrate=4036.4kbits/s speed=0.0151x    frame=  378 fps=0.5 q=40.0 size=    5892kB time=00:00:12.00 bitrate=4022.3kbits/s speed=0.0152x    frame=  380 fps=0.5 q=40.0 size=    5892kB time=00:00:12.08 bitrate=3994.6kbits/s speed=0.0152x    frame=  381 fps=0.5 q=40.0 size=    5892kB time=00:00:12.12 bitrate=3980.8kbits/s speed=0.0152x    frame=  384 fps=0.5 q=40.0 size=    5892kB time=00:00:12.25 bitrate=3940.2kbits/s speed=0.0153x    frame=  385 fps=0.5 q=40.0 size=    5892kB time=00:00:12.29 bitrate=3926.7kbits/s speed=0.0153x    frame=  387 fps=0.5 q=40.0 size=    5892kB time=00:00:12.37 bitrate=3900.4kbits/s speed=0.0153x    frame=  388 fps=0.5 q=40.0 size=    5892kB time=00:00:12.41 bitrate=3887.2kbits/s speed=0.0153x    frame=  389 fps=0.5 q=40.0 size=    5892kB time=00:00:12.45 bitrate=3874.4kbits/s speed=0.0154x    frame=  390 fps=0.5 q=40.0 size=    5892kB time=00:00:12.50 bitrate=3861.4kbits/s speed=0.0154x    frame=  394 fps=0.5 q=39.0 size=    5892kB time=00:00:12.66 bitrate=3810.5kbits/s speed=0.0154x    frame=  396 fps=0.5 q=40.0 size=    5892kB time=00:00:12.75 bitrate=3785.7kbits/s speed=0.0155x    frame=  400 fps=0.5 q=39.0 size=    5892kB time=00:00:12.91 bitrate=3736.7kbits/s speed=0.0155x    frame=  402 fps=0.5 q=39.0 size=    5892kB time=00:00:13.00 bitrate=3712.9kbits/s speed=0.0156x    frame=  406 fps=0.5 q=39.0 size=    5892kB time=00:00:13.16 bitrate=3665.8kbits/s speed=0.0156x    frame=  408 fps=0.5 q=39.0 size=    5892kB time=00:00:13.25 bitrate=3642.8kbits/s speed=0.0157x    frame=  411 fps=0.5 q=39.0 size=    5892kB time=00:00:13.37 bitrate=3608.8kbits/s speed=0.0158x    frame=  412 fps=0.5 q=39.0 size=    5892kB time=00:00:13.41 bitrate=3597.5kbits/s speed=0.0158x    frame=  415 fps=0.5 q=38.0 size=    5892kB time=00:00:13.54 bitrate=3564.3kbits/s speed=0.0159x    frame=  416 fps=0.5 q=39.0 size=    5892kB time=00:00:13.58 bitrate=3553.5kbits/s speed=0.0158x    frame=  418 fps=0.5 q=38.0 size=    5892kB time=00:00:13.66 bitrate=3531.7kbits/s speed=0.0159x    frame=  421 fps=0.5 q=38.0 size=    5892kB time=00:00:13.79 bitrate=3499.7kbits/s speed=0.0159x    frame=  422 fps=0.5 q=38.0 size=    5892kB time=00:00:13.83 bitrate=3489.3kbits/s speed=0.016x    frame=  423 fps=0.5 q=38.0 size=    5892kB time=00:00:13.87 bitrate=3478.7kbits/s speed=0.016x    frame=  426 fps=0.5 q=38.0 size=    5892kB time=00:00:14.00 bitrate=3447.7kbits/s speed=0.016x    frame=  428 fps=0.5 q=38.0 size=    5892kB time=00:00:14.08 bitrate=3427.4kbits/s speed=0.0161x    frame=  432 fps=0.5 q=38.0 size=    5892kB time=00:00:14.25 bitrate=3387.2kbits/s speed=0.0161x    frame=  434 fps=0.5 q=38.0 size=    5892kB time=00:00:14.33 bitrate=3367.6kbits/s speed=0.0162x    frame=  438 fps=0.5 q=37.0 size=    5892kB time=00:00:14.50 bitrate=3328.8kbits/s speed=0.0162x    frame=  440 fps=0.5 q=38.0 size=    5892kB time=00:00:14.58 bitrate=3309.9kbits/s speed=0.0163x    frame=  444 fps=0.5 q=37.0 size=    5892kB time=00:00:14.75 bitrate=3272.4kbits/s speed=0.0163x    frame=  445 fps=0.5 q=37.0 size=    5892kB time=00:00:14.79 bitrate=3263.1kbits/s speed=0.0164x    frame=  447 fps=0.5 q=37.0 size=    5892kB time=00:00:14.87 bitrate=3244.9kbits/s speed=0.0164x    frame=  448 fps=0.5 q=37.0 size=    5892kB time=00:00:14.91 bitrate=3235.8kbits/s speed=0.0163x    frame=  449 fps=0.5 q=37.0 size=    5892kB time=00:00:14.95 bitrate=3226.9kbits/s speed=0.0163x    frame=  451 fps=0.5 q=37.0 size=    5892kB time=00:00:15.04 bitrate=3208.9kbits/s speed=0.0164x    frame=  452 fps=0.5 q=37.0 size=    5892kB time=00:00:15.08 bitrate=3200.2kbits/s speed=0.0164x    frame=  453 fps=0.5 q=37.0 size=    5892kB time=00:00:15.12 bitrate=3191.3kbits/s speed=0.0164x    frame=  454 fps=0.5 q=37.0 size=    5892kB time=00:00:15.16 bitrate=3182.4kbits/s speed=0.0164x    frame=  455 fps=0.5 q=37.0 size=    5892kB time=00:00:15.20 bitrate=3173.9kbits/s speed=0.0163x    frame=  456 fps=0.5 q=37.0 size=    5892kB time=00:00:15.25 bitrate=3165.1kbits/s speed=0.0163x    frame=  457 fps=0.5 q=37.0 size=    5892kB time=00:00:15.29 bitrate=3156.4kbits/s speed=0.0164x    frame=  458 fps=0.5 q=37.0 size=    7758kB time=00:00:15.33 bitrate=4144.6kbits/s speed=0.0164x    frame=  459 fps=0.5 q=37.0 size=    7758kB time=00:00:15.37 bitrate=4133.3kbits/s speed=0.0164x    frame=  460 fps=0.5 q=37.0 size=    7758kB time=00:00:15.41 bitrate=4122.0kbits/s speed=0.0164x    frame=  461 fps=0.5 q=37.0 size=    7758kB time=00:00:15.45 bitrate=4111.1kbits/s speed=0.0164x    frame=  462 fps=0.5 q=37.0 size=    7758kB time=00:00:15.50 bitrate=4100.0kbits/s speed=0.0164x    frame=  463 fps=0.5 q=37.0 size=    7758kB time=00:00:15.54 bitrate=4088.9kbits/s speed=0.0163x    frame=  464 fps=0.5 q=37.0 size=    7758kB time=00:00:15.58 bitrate=4078.1kbits/s speed=0.0164x    frame=  465 fps=0.5 q=37.0 size=    7758kB time=00:00:15.62 bitrate=4067.2kbits/s speed=0.0164x    frame=  467 fps=0.5 q=37.0 size=    7758kB time=00:00:15.70 bitrate=4045.7kbits/s speed=0.0164x    frame=  468 fps=0.5 q=37.0 size=    7758kB time=00:00:15.75 bitrate=4034.9kbits/s speed=0.0165x    frame=  469 fps=0.5 q=37.0 size=    7758kB time=00:00:15.79 bitrate=4024.1kbits/s speed=0.0165x    frame=  470 fps=0.5 q=36.0 size=    7758kB time=00:00:15.83 bitrate=4013.7kbits/s speed=0.0164x    frame=  471 fps=0.5 q=37.0 size=    7758kB time=00:00:15.87 bitrate=4003.1kbits/s speed=0.0164x    frame=  472 fps=0.5 q=37.0 size=    7758kB time=00:00:15.91 bitrate=3992.5kbits/s speed=0.0164x    frame=  476 fps=0.5 q=36.0 size=    7758kB time=00:00:16.08 bitrate=3951.3kbits/s speed=0.0164x    frame=  477 fps=0.5 q=36.0 size=    7758kB time=00:00:16.12 bitrate=3941.1kbits/s speed=0.0164x    frame=  478 fps=0.5 q=36.0 size=    7758kB time=00:00:16.16 bitrate=3930.8kbits/s speed=0.0165x    frame=  479 fps=0.5 q=36.0 size=    7758kB time=00:00:16.20 bitrate=3920.9kbits/s speed=0.0165x    frame=  480 fps=0.5 q=36.0 size=    7758kB time=00:00:16.25 bitrate=3910.7kbits/s speed=0.0165x    frame=  481 fps=0.5 q=36.0 size=    7758kB time=00:00:16.29 bitrate=3900.7kbits/s speed=0.0165x    frame=  482 fps=0.5 q=36.0 size=    7758kB time=00:00:16.33 bitrate=3890.9kbits/s speed=0.0165x    frame=  483 fps=0.5 q=36.0 size=    7758kB time=00:00:16.37 bitrate=3880.9kbits/s speed=0.0164x    frame=  484 fps=0.5 q=36.0 size=    7758kB time=00:00:16.41 bitrate=3871.0kbits/s speed=0.0164x    frame=  485 fps=0.5 q=36.0 size=    7758kB time=00:00:16.45 bitrate=3861.3kbits/s speed=0.0164x    frame=  487 fps=0.5 q=37.0 size=    7758kB time=00:00:16.54 bitrate=3841.7kbits/s speed=0.0164x    frame=  488 fps=0.5 q=37.0 size=    7758kB time=00:00:16.58 bitrate=3832.2kbits/s speed=0.0165x    frame=  489 fps=0.5 q=37.0 size=    7758kB time=00:00:16.62 bitrate=3822.5kbits/s speed=0.0165x    frame=  490 fps=0.5 q=37.0 size=    7758kB time=00:00:16.66 bitrate=3812.9kbits/s speed=0.0163x    frame=  491 fps=0.5 q=37.0 size=    7758kB time=00:00:16.70 bitrate=3803.5kbits/s speed=0.0164x    frame=  492 fps=0.5 q=37.0 size=    7758kB time=00:00:16.75 bitrate=3794.0kbits/s speed=0.0164x    frame=  493 fps=0.5 q=37.0 size=    7758kB time=00:00:16.79 bitrate=3784.5kbits/s speed=0.0164x    frame=  494 fps=0.5 q=37.0 size=    7758kB time=00:00:16.83 bitrate=3775.3kbits/s speed=0.0164x    frame=  495 fps=0.5 q=37.0 size=    7758kB time=00:00:16.87 bitrate=3765.9kbits/s speed=0.0164x    frame=  496 fps=0.5 q=37.0 size=    7758kB time=00:00:16.91 bitrate=3756.6kbits/s speed=0.0164x    frame=  497 fps=0.5 q=37.0 size=    7758kB time=00:00:16.95 bitrate=3747.5kbits/s speed=0.0163x    frame=  498 fps=0.5 q=37.0 size=    7758kB time=00:00:17.00 bitrate=3738.2kbits/s speed=0.0164x    frame=  499 fps=0.5 q=37.0 size=    7758kB time=00:00:17.04 bitrate=3729.0kbits/s speed=0.0164x    frame=  500 fps=0.5 q=36.0 size=    7758kB time=00:00:17.08 bitrate=3720.1kbits/s speed=0.0163x    frame=  500 fps=0.4 q=-1.0 Lsize=   10610kB time=00:00:20.70 bitrate=4197.1kbits/s speed=0.017x    
video:10605kB audio:0kB subtitle:0kB other streams:0kB global headers:0kB muxing overhead: 0.043278%
bench: utime=4581.208s
bench: maxrss=4183752kB
[libx264 @ 0x2a261c0] frame I:3     Avg QP:31.34  size:118396
[libx264 @ 0x2a261c0] frame P:267   Avg QP:39.49  size: 28383
[libx264 @ 0x2a261c0] frame B:230   Avg QP:39.02  size: 12722
[libx264 @ 0x2a261c0] consecutive B-frames: 34.8% 13.6% 12.0% 16.0% 14.0%  9.6%  0.0%  0.0%  0.0%  0.0%  0.0%  0.0%  0.0%  0.0%  0.0%  0.0%  0.0%
[libx264 @ 0x2a261c0] mb I  I16..4: 17.7% 71.5% 10.8%
[libx264 @ 0x2a261c0] mb P  I16..4:  8.8% 13.2% 13.2%  P16..4: 23.4%  8.7%  1.0%  0.0%  0.0%    skip:31.7%
[libx264 @ 0x2a261c0] mb B  I16..4:  0.8%  1.0%  0.4%  B16..8: 26.9%  3.6%  0.3%  direct: 0.3%  skip:66.6%  L0:39.5% L1:59.2% BI: 1.3%
[libx264 @ 0x2a261c0] final ratefactor: 34.11
[libx264 @ 0x2a261c0] 8x8 transform intra:38.8% inter:87.7%
[libx264 @ 0x2a261c0] direct mvs  spatial:98.7% temporal:1.3%
[libx264 @ 0x2a261c0] coded y,uvDC,uvAC intra: 8.2% 10.4% 0.3% inter: 1.4% 1.3% 0.0%
[libx264 @ 0x2a261c0] i16 v,h,dc,p:  6% 17%  3% 73%
[libx264 @ 0x2a261c0] i8 v,h,dc,ddl,ddr,vr,hd,vl,hu: 20%  7% 53%  2%  3%  3%  4%  3%  5%
[libx264 @ 0x2a261c0] i4 v,h,dc,ddl,ddr,vr,hd,vl,hu:  9%  3% 87%  0%  0%  0%  0%  0%  0%
[libx264 @ 0x2a261c0] i8c dc,h,v,p: 48% 38%  6%  9%
[libx264 @ 0x2a261c0] Weighted P-Frames: Y:3.0% UV:2.6%
[libx264 @ 0x2a261c0] ref P L0: 44.9% 23.2% 14.0%  4.4%  3.0%  2.3%  2.1%  1.1%  1.0%  0.8%  0.7%  0.6%  0.5%  0.5%  0.5%  0.3%
[libx264 @ 0x2a261c0] ref B L0: 90.3%  4.5%  1.9%  0.8%  0.6%  0.5%  0.4%  0.2%  0.2%  0.1%  0.1%  0.1%  0.1%  0.1%  0.1%
[libx264 @ 0x2a261c0] ref B L1: 98.7%  1.3%
[libx264 @ 0x2a261c0] kb/s:4169.98
